<mxfile host="Electron" modified="2024-01-23T09:51:31.333Z" agent="Mozilla/5.0 (Windows NT 10.0; Win64; x64) AppleWebKit/537.36 (KHTML, like Gecko) draw.io/22.1.21 Chrome/120.0.6099.109 Electron/28.1.0 Safari/537.36" etag="Acz-xTfKJhf31AFByW0V" version="22.1.21" type="device">
  <diagram name="Page-1" id="efa7a0a1-bf9b-a30e-e6df-94a7791c09e9">
    <mxGraphModel dx="1973" dy="675" grid="1" gridSize="10" guides="1" tooltips="1" connect="1" arrows="1" fold="1" page="1" pageScale="1" pageWidth="826" pageHeight="1169" background="none" math="0" shadow="0">
      <root>
        <mxCell id="0" />
        <mxCell id="1" parent="0" />
        <mxCell id="oIanC5NqBuvGs9Cmnip_-144" value="Server" style="shape=table;startSize=30;container=1;collapsible=1;childLayout=tableLayout;fixedRows=1;rowLines=0;fontStyle=1;align=center;resizeLast=1;html=1;" vertex="1" parent="1">
          <mxGeometry x="20" y="50" width="180" height="90" as="geometry" />
        </mxCell>
        <mxCell id="oIanC5NqBuvGs9Cmnip_-145" value="" style="shape=tableRow;horizontal=0;startSize=0;swimlaneHead=0;swimlaneBody=0;fillColor=none;collapsible=0;dropTarget=0;points=[[0,0.5],[1,0.5]];portConstraint=eastwest;top=0;left=0;right=0;bottom=1;" vertex="1" parent="oIanC5NqBuvGs9Cmnip_-144">
          <mxGeometry y="30" width="180" height="30" as="geometry" />
        </mxCell>
        <mxCell id="oIanC5NqBuvGs9Cmnip_-146" value="PK" style="shape=partialRectangle;connectable=0;fillColor=none;top=0;left=0;bottom=0;right=0;fontStyle=1;overflow=hidden;whiteSpace=wrap;html=1;" vertex="1" parent="oIanC5NqBuvGs9Cmnip_-145">
          <mxGeometry width="30" height="30" as="geometry">
            <mxRectangle width="30" height="30" as="alternateBounds" />
          </mxGeometry>
        </mxCell>
        <mxCell id="oIanC5NqBuvGs9Cmnip_-147" value="serverId" style="shape=partialRectangle;connectable=0;fillColor=none;top=0;left=0;bottom=0;right=0;align=left;spacingLeft=6;fontStyle=5;overflow=hidden;whiteSpace=wrap;html=1;" vertex="1" parent="oIanC5NqBuvGs9Cmnip_-145">
          <mxGeometry x="30" width="150" height="30" as="geometry">
            <mxRectangle width="150" height="30" as="alternateBounds" />
          </mxGeometry>
        </mxCell>
        <mxCell id="oIanC5NqBuvGs9Cmnip_-148" value="" style="shape=tableRow;horizontal=0;startSize=0;swimlaneHead=0;swimlaneBody=0;fillColor=none;collapsible=0;dropTarget=0;points=[[0,0.5],[1,0.5]];portConstraint=eastwest;top=0;left=0;right=0;bottom=0;" vertex="1" parent="oIanC5NqBuvGs9Cmnip_-144">
          <mxGeometry y="60" width="180" height="30" as="geometry" />
        </mxCell>
        <mxCell id="oIanC5NqBuvGs9Cmnip_-149" value="" style="shape=partialRectangle;connectable=0;fillColor=none;top=0;left=0;bottom=0;right=0;editable=1;overflow=hidden;whiteSpace=wrap;html=1;" vertex="1" parent="oIanC5NqBuvGs9Cmnip_-148">
          <mxGeometry width="30" height="30" as="geometry">
            <mxRectangle width="30" height="30" as="alternateBounds" />
          </mxGeometry>
        </mxCell>
        <mxCell id="oIanC5NqBuvGs9Cmnip_-150" value="serverName" style="shape=partialRectangle;connectable=0;fillColor=none;top=0;left=0;bottom=0;right=0;align=left;spacingLeft=6;overflow=hidden;whiteSpace=wrap;html=1;" vertex="1" parent="oIanC5NqBuvGs9Cmnip_-148">
          <mxGeometry x="30" width="150" height="30" as="geometry">
            <mxRectangle width="150" height="30" as="alternateBounds" />
          </mxGeometry>
        </mxCell>
        <mxCell id="oIanC5NqBuvGs9Cmnip_-165" value="Character" style="shape=table;startSize=30;container=1;collapsible=1;childLayout=tableLayout;fixedRows=1;rowLines=0;fontStyle=1;align=center;resizeLast=1;html=1;" vertex="1" parent="1">
          <mxGeometry x="20" y="200" width="180" height="210" as="geometry" />
        </mxCell>
        <mxCell id="oIanC5NqBuvGs9Cmnip_-166" value="" style="shape=tableRow;horizontal=0;startSize=0;swimlaneHead=0;swimlaneBody=0;fillColor=none;collapsible=0;dropTarget=0;points=[[0,0.5],[1,0.5]];portConstraint=eastwest;top=0;left=0;right=0;bottom=1;" vertex="1" parent="oIanC5NqBuvGs9Cmnip_-165">
          <mxGeometry y="30" width="180" height="30" as="geometry" />
        </mxCell>
        <mxCell id="oIanC5NqBuvGs9Cmnip_-167" value="PK" style="shape=partialRectangle;connectable=0;fillColor=none;top=0;left=0;bottom=0;right=0;fontStyle=1;overflow=hidden;whiteSpace=wrap;html=1;" vertex="1" parent="oIanC5NqBuvGs9Cmnip_-166">
          <mxGeometry width="50" height="30" as="geometry">
            <mxRectangle width="50" height="30" as="alternateBounds" />
          </mxGeometry>
        </mxCell>
        <mxCell id="oIanC5NqBuvGs9Cmnip_-168" value="characterId" style="shape=partialRectangle;connectable=0;fillColor=none;top=0;left=0;bottom=0;right=0;align=left;spacingLeft=6;fontStyle=5;overflow=hidden;whiteSpace=wrap;html=1;" vertex="1" parent="oIanC5NqBuvGs9Cmnip_-166">
          <mxGeometry x="50" width="130" height="30" as="geometry">
            <mxRectangle width="130" height="30" as="alternateBounds" />
          </mxGeometry>
        </mxCell>
        <mxCell id="oIanC5NqBuvGs9Cmnip_-181" style="shape=tableRow;horizontal=0;startSize=0;swimlaneHead=0;swimlaneBody=0;fillColor=none;collapsible=0;dropTarget=0;points=[[0,0.5],[1,0.5]];portConstraint=eastwest;top=0;left=0;right=0;bottom=1;" vertex="1" parent="oIanC5NqBuvGs9Cmnip_-165">
          <mxGeometry y="60" width="180" height="30" as="geometry" />
        </mxCell>
        <mxCell id="oIanC5NqBuvGs9Cmnip_-182" value="FK" style="shape=partialRectangle;connectable=0;fillColor=none;top=0;left=0;bottom=0;right=0;fontStyle=1;overflow=hidden;whiteSpace=wrap;html=1;" vertex="1" parent="oIanC5NqBuvGs9Cmnip_-181">
          <mxGeometry width="50" height="30" as="geometry">
            <mxRectangle width="50" height="30" as="alternateBounds" />
          </mxGeometry>
        </mxCell>
        <mxCell id="oIanC5NqBuvGs9Cmnip_-183" value="serverId" style="shape=partialRectangle;connectable=0;fillColor=none;top=0;left=0;bottom=0;right=0;align=left;spacingLeft=6;fontStyle=5;overflow=hidden;whiteSpace=wrap;html=1;" vertex="1" parent="oIanC5NqBuvGs9Cmnip_-181">
          <mxGeometry x="50" width="130" height="30" as="geometry">
            <mxRectangle width="130" height="30" as="alternateBounds" />
          </mxGeometry>
        </mxCell>
        <mxCell id="oIanC5NqBuvGs9Cmnip_-217" style="shape=tableRow;horizontal=0;startSize=0;swimlaneHead=0;swimlaneBody=0;fillColor=none;collapsible=0;dropTarget=0;points=[[0,0.5],[1,0.5]];portConstraint=eastwest;top=0;left=0;right=0;bottom=1;" vertex="1" parent="oIanC5NqBuvGs9Cmnip_-165">
          <mxGeometry y="90" width="180" height="30" as="geometry" />
        </mxCell>
        <mxCell id="oIanC5NqBuvGs9Cmnip_-218" value="FK" style="shape=partialRectangle;connectable=0;fillColor=none;top=0;left=0;bottom=0;right=0;fontStyle=1;overflow=hidden;whiteSpace=wrap;html=1;" vertex="1" parent="oIanC5NqBuvGs9Cmnip_-217">
          <mxGeometry width="50" height="30" as="geometry">
            <mxRectangle width="50" height="30" as="alternateBounds" />
          </mxGeometry>
        </mxCell>
        <mxCell id="oIanC5NqBuvGs9Cmnip_-219" value="jobGrowId" style="shape=partialRectangle;connectable=0;fillColor=none;top=0;left=0;bottom=0;right=0;align=left;spacingLeft=6;fontStyle=5;overflow=hidden;whiteSpace=wrap;html=1;" vertex="1" parent="oIanC5NqBuvGs9Cmnip_-217">
          <mxGeometry x="50" width="130" height="30" as="geometry">
            <mxRectangle width="130" height="30" as="alternateBounds" />
          </mxGeometry>
        </mxCell>
        <mxCell id="oIanC5NqBuvGs9Cmnip_-169" value="" style="shape=tableRow;horizontal=0;startSize=0;swimlaneHead=0;swimlaneBody=0;fillColor=none;collapsible=0;dropTarget=0;points=[[0,0.5],[1,0.5]];portConstraint=eastwest;top=0;left=0;right=0;bottom=0;" vertex="1" parent="oIanC5NqBuvGs9Cmnip_-165">
          <mxGeometry y="120" width="180" height="30" as="geometry" />
        </mxCell>
        <mxCell id="oIanC5NqBuvGs9Cmnip_-170" value="" style="shape=partialRectangle;connectable=0;fillColor=none;top=0;left=0;bottom=0;right=0;editable=1;overflow=hidden;whiteSpace=wrap;html=1;" vertex="1" parent="oIanC5NqBuvGs9Cmnip_-169">
          <mxGeometry width="50" height="30" as="geometry">
            <mxRectangle width="50" height="30" as="alternateBounds" />
          </mxGeometry>
        </mxCell>
        <mxCell id="oIanC5NqBuvGs9Cmnip_-171" value="characterName" style="shape=partialRectangle;connectable=0;fillColor=none;top=0;left=0;bottom=0;right=0;align=left;spacingLeft=6;overflow=hidden;whiteSpace=wrap;html=1;" vertex="1" parent="oIanC5NqBuvGs9Cmnip_-169">
          <mxGeometry x="50" width="130" height="30" as="geometry">
            <mxRectangle width="130" height="30" as="alternateBounds" />
          </mxGeometry>
        </mxCell>
        <mxCell id="oIanC5NqBuvGs9Cmnip_-172" value="" style="shape=tableRow;horizontal=0;startSize=0;swimlaneHead=0;swimlaneBody=0;fillColor=none;collapsible=0;dropTarget=0;points=[[0,0.5],[1,0.5]];portConstraint=eastwest;top=0;left=0;right=0;bottom=0;" vertex="1" parent="oIanC5NqBuvGs9Cmnip_-165">
          <mxGeometry y="150" width="180" height="30" as="geometry" />
        </mxCell>
        <mxCell id="oIanC5NqBuvGs9Cmnip_-173" value="" style="shape=partialRectangle;connectable=0;fillColor=none;top=0;left=0;bottom=0;right=0;editable=1;overflow=hidden;whiteSpace=wrap;html=1;" vertex="1" parent="oIanC5NqBuvGs9Cmnip_-172">
          <mxGeometry width="50" height="30" as="geometry">
            <mxRectangle width="50" height="30" as="alternateBounds" />
          </mxGeometry>
        </mxCell>
        <mxCell id="oIanC5NqBuvGs9Cmnip_-174" value="level" style="shape=partialRectangle;connectable=0;fillColor=none;top=0;left=0;bottom=0;right=0;align=left;spacingLeft=6;overflow=hidden;whiteSpace=wrap;html=1;" vertex="1" parent="oIanC5NqBuvGs9Cmnip_-172">
          <mxGeometry x="50" width="130" height="30" as="geometry">
            <mxRectangle width="130" height="30" as="alternateBounds" />
          </mxGeometry>
        </mxCell>
        <mxCell id="oIanC5NqBuvGs9Cmnip_-175" value="" style="shape=tableRow;horizontal=0;startSize=0;swimlaneHead=0;swimlaneBody=0;fillColor=none;collapsible=0;dropTarget=0;points=[[0,0.5],[1,0.5]];portConstraint=eastwest;top=0;left=0;right=0;bottom=0;" vertex="1" parent="oIanC5NqBuvGs9Cmnip_-165">
          <mxGeometry y="180" width="180" height="30" as="geometry" />
        </mxCell>
        <mxCell id="oIanC5NqBuvGs9Cmnip_-176" value="" style="shape=partialRectangle;connectable=0;fillColor=none;top=0;left=0;bottom=0;right=0;editable=1;overflow=hidden;whiteSpace=wrap;html=1;" vertex="1" parent="oIanC5NqBuvGs9Cmnip_-175">
          <mxGeometry width="50" height="30" as="geometry">
            <mxRectangle width="50" height="30" as="alternateBounds" />
          </mxGeometry>
        </mxCell>
        <mxCell id="oIanC5NqBuvGs9Cmnip_-177" value="fame" style="shape=partialRectangle;connectable=0;fillColor=none;top=0;left=0;bottom=0;right=0;align=left;spacingLeft=6;overflow=hidden;whiteSpace=wrap;html=1;" vertex="1" parent="oIanC5NqBuvGs9Cmnip_-175">
          <mxGeometry x="50" width="130" height="30" as="geometry">
            <mxRectangle width="130" height="30" as="alternateBounds" />
          </mxGeometry>
        </mxCell>
        <mxCell id="oIanC5NqBuvGs9Cmnip_-225" style="edgeStyle=orthogonalEdgeStyle;rounded=0;orthogonalLoop=1;jettySize=auto;html=1;entryX=0;entryY=0.5;entryDx=0;entryDy=0;" edge="1" parent="1" source="oIanC5NqBuvGs9Cmnip_-221" target="oIanC5NqBuvGs9Cmnip_-195">
          <mxGeometry relative="1" as="geometry" />
        </mxCell>
        <mxCell id="oIanC5NqBuvGs9Cmnip_-187" value="Job" style="shape=table;startSize=30;container=1;collapsible=1;childLayout=tableLayout;fixedRows=1;rowLines=0;fontStyle=1;align=center;resizeLast=1;html=1;" vertex="1" parent="1">
          <mxGeometry x="320" y="50" width="180" height="90" as="geometry" />
        </mxCell>
        <mxCell id="oIanC5NqBuvGs9Cmnip_-188" value="" style="shape=tableRow;horizontal=0;startSize=0;swimlaneHead=0;swimlaneBody=0;fillColor=none;collapsible=0;dropTarget=0;points=[[0,0.5],[1,0.5]];portConstraint=eastwest;top=0;left=0;right=0;bottom=1;" vertex="1" parent="oIanC5NqBuvGs9Cmnip_-187">
          <mxGeometry y="30" width="180" height="30" as="geometry" />
        </mxCell>
        <mxCell id="oIanC5NqBuvGs9Cmnip_-189" value="PK" style="shape=partialRectangle;connectable=0;fillColor=none;top=0;left=0;bottom=0;right=0;fontStyle=1;overflow=hidden;whiteSpace=wrap;html=1;" vertex="1" parent="oIanC5NqBuvGs9Cmnip_-188">
          <mxGeometry width="30" height="30" as="geometry">
            <mxRectangle width="30" height="30" as="alternateBounds" />
          </mxGeometry>
        </mxCell>
        <mxCell id="oIanC5NqBuvGs9Cmnip_-190" value="jobId" style="shape=partialRectangle;connectable=0;fillColor=none;top=0;left=0;bottom=0;right=0;align=left;spacingLeft=6;fontStyle=5;overflow=hidden;whiteSpace=wrap;html=1;" vertex="1" parent="oIanC5NqBuvGs9Cmnip_-188">
          <mxGeometry x="30" width="150" height="30" as="geometry">
            <mxRectangle width="150" height="30" as="alternateBounds" />
          </mxGeometry>
        </mxCell>
        <mxCell id="oIanC5NqBuvGs9Cmnip_-191" value="" style="shape=tableRow;horizontal=0;startSize=0;swimlaneHead=0;swimlaneBody=0;fillColor=none;collapsible=0;dropTarget=0;points=[[0,0.5],[1,0.5]];portConstraint=eastwest;top=0;left=0;right=0;bottom=0;" vertex="1" parent="oIanC5NqBuvGs9Cmnip_-187">
          <mxGeometry y="60" width="180" height="30" as="geometry" />
        </mxCell>
        <mxCell id="oIanC5NqBuvGs9Cmnip_-192" value="" style="shape=partialRectangle;connectable=0;fillColor=none;top=0;left=0;bottom=0;right=0;editable=1;overflow=hidden;whiteSpace=wrap;html=1;" vertex="1" parent="oIanC5NqBuvGs9Cmnip_-191">
          <mxGeometry width="30" height="30" as="geometry">
            <mxRectangle width="30" height="30" as="alternateBounds" />
          </mxGeometry>
        </mxCell>
        <mxCell id="oIanC5NqBuvGs9Cmnip_-193" value="jobName" style="shape=partialRectangle;connectable=0;fillColor=none;top=0;left=0;bottom=0;right=0;align=left;spacingLeft=6;overflow=hidden;whiteSpace=wrap;html=1;" vertex="1" parent="oIanC5NqBuvGs9Cmnip_-191">
          <mxGeometry x="30" width="150" height="30" as="geometry">
            <mxRectangle width="150" height="30" as="alternateBounds" />
          </mxGeometry>
        </mxCell>
        <mxCell id="oIanC5NqBuvGs9Cmnip_-212" style="edgeStyle=orthogonalEdgeStyle;rounded=0;orthogonalLoop=1;jettySize=auto;html=1;entryX=1;entryY=0.5;entryDx=0;entryDy=0;" edge="1" parent="1" source="oIanC5NqBuvGs9Cmnip_-145" target="oIanC5NqBuvGs9Cmnip_-181">
          <mxGeometry relative="1" as="geometry" />
        </mxCell>
        <mxCell id="oIanC5NqBuvGs9Cmnip_-213" style="edgeStyle=orthogonalEdgeStyle;rounded=0;orthogonalLoop=1;jettySize=auto;html=1;entryX=0;entryY=0.5;entryDx=0;entryDy=0;" edge="1" parent="1" source="oIanC5NqBuvGs9Cmnip_-188" target="oIanC5NqBuvGs9Cmnip_-207">
          <mxGeometry relative="1" as="geometry" />
        </mxCell>
        <mxCell id="oIanC5NqBuvGs9Cmnip_-220" style="edgeStyle=orthogonalEdgeStyle;rounded=0;orthogonalLoop=1;jettySize=auto;html=1;entryX=1;entryY=0.5;entryDx=0;entryDy=0;" edge="1" parent="1" source="oIanC5NqBuvGs9Cmnip_-195" target="oIanC5NqBuvGs9Cmnip_-217">
          <mxGeometry relative="1" as="geometry" />
        </mxCell>
        <mxCell id="oIanC5NqBuvGs9Cmnip_-194" value="JobGrow" style="shape=table;startSize=30;container=1;collapsible=1;childLayout=tableLayout;fixedRows=1;rowLines=0;fontStyle=1;align=center;resizeLast=1;html=1;" vertex="1" parent="1">
          <mxGeometry x="330" y="290" width="180" height="180" as="geometry" />
        </mxCell>
        <mxCell id="oIanC5NqBuvGs9Cmnip_-207" style="shape=tableRow;horizontal=0;startSize=0;swimlaneHead=0;swimlaneBody=0;fillColor=none;collapsible=0;dropTarget=0;points=[[0,0.5],[1,0.5]];portConstraint=eastwest;top=0;left=0;right=0;bottom=1;" vertex="1" parent="oIanC5NqBuvGs9Cmnip_-194">
          <mxGeometry y="30" width="180" height="30" as="geometry" />
        </mxCell>
        <mxCell id="oIanC5NqBuvGs9Cmnip_-208" value="FK" style="shape=partialRectangle;connectable=0;fillColor=none;top=0;left=0;bottom=0;right=0;fontStyle=1;overflow=hidden;whiteSpace=wrap;html=1;" vertex="1" parent="oIanC5NqBuvGs9Cmnip_-207">
          <mxGeometry width="30" height="30" as="geometry">
            <mxRectangle width="30" height="30" as="alternateBounds" />
          </mxGeometry>
        </mxCell>
        <mxCell id="oIanC5NqBuvGs9Cmnip_-209" value="jobId" style="shape=partialRectangle;connectable=0;fillColor=none;top=0;left=0;bottom=0;right=0;align=left;spacingLeft=6;fontStyle=5;overflow=hidden;whiteSpace=wrap;html=1;" vertex="1" parent="oIanC5NqBuvGs9Cmnip_-207">
          <mxGeometry x="30" width="150" height="30" as="geometry">
            <mxRectangle width="150" height="30" as="alternateBounds" />
          </mxGeometry>
        </mxCell>
        <mxCell id="oIanC5NqBuvGs9Cmnip_-195" value="" style="shape=tableRow;horizontal=0;startSize=0;swimlaneHead=0;swimlaneBody=0;fillColor=none;collapsible=0;dropTarget=0;points=[[0,0.5],[1,0.5]];portConstraint=eastwest;top=0;left=0;right=0;bottom=1;" vertex="1" parent="oIanC5NqBuvGs9Cmnip_-194">
          <mxGeometry y="60" width="180" height="30" as="geometry" />
        </mxCell>
        <mxCell id="oIanC5NqBuvGs9Cmnip_-196" value="PK" style="shape=partialRectangle;connectable=0;fillColor=none;top=0;left=0;bottom=0;right=0;fontStyle=1;overflow=hidden;whiteSpace=wrap;html=1;" vertex="1" parent="oIanC5NqBuvGs9Cmnip_-195">
          <mxGeometry width="30" height="30" as="geometry">
            <mxRectangle width="30" height="30" as="alternateBounds" />
          </mxGeometry>
        </mxCell>
        <mxCell id="oIanC5NqBuvGs9Cmnip_-197" value="jobGrowId" style="shape=partialRectangle;connectable=0;fillColor=none;top=0;left=0;bottom=0;right=0;align=left;spacingLeft=6;fontStyle=5;overflow=hidden;whiteSpace=wrap;html=1;" vertex="1" parent="oIanC5NqBuvGs9Cmnip_-195">
          <mxGeometry x="30" width="150" height="30" as="geometry">
            <mxRectangle width="150" height="30" as="alternateBounds" />
          </mxGeometry>
        </mxCell>
        <mxCell id="oIanC5NqBuvGs9Cmnip_-221" style="shape=tableRow;horizontal=0;startSize=0;swimlaneHead=0;swimlaneBody=0;fillColor=none;collapsible=0;dropTarget=0;points=[[0,0.5],[1,0.5]];portConstraint=eastwest;top=0;left=0;right=0;bottom=1;" vertex="1" parent="oIanC5NqBuvGs9Cmnip_-194">
          <mxGeometry y="90" width="180" height="30" as="geometry" />
        </mxCell>
        <mxCell id="oIanC5NqBuvGs9Cmnip_-222" value="FK" style="shape=partialRectangle;connectable=0;fillColor=none;top=0;left=0;bottom=0;right=0;fontStyle=1;overflow=hidden;whiteSpace=wrap;html=1;" vertex="1" parent="oIanC5NqBuvGs9Cmnip_-221">
          <mxGeometry width="30" height="30" as="geometry">
            <mxRectangle width="30" height="30" as="alternateBounds" />
          </mxGeometry>
        </mxCell>
        <mxCell id="oIanC5NqBuvGs9Cmnip_-223" value="prevJobGrowId" style="shape=partialRectangle;connectable=0;fillColor=none;top=0;left=0;bottom=0;right=0;align=left;spacingLeft=6;fontStyle=5;overflow=hidden;whiteSpace=wrap;html=1;" vertex="1" parent="oIanC5NqBuvGs9Cmnip_-221">
          <mxGeometry x="30" width="150" height="30" as="geometry">
            <mxRectangle width="150" height="30" as="alternateBounds" />
          </mxGeometry>
        </mxCell>
        <mxCell id="oIanC5NqBuvGs9Cmnip_-198" value="" style="shape=tableRow;horizontal=0;startSize=0;swimlaneHead=0;swimlaneBody=0;fillColor=none;collapsible=0;dropTarget=0;points=[[0,0.5],[1,0.5]];portConstraint=eastwest;top=0;left=0;right=0;bottom=0;" vertex="1" parent="oIanC5NqBuvGs9Cmnip_-194">
          <mxGeometry y="120" width="180" height="30" as="geometry" />
        </mxCell>
        <mxCell id="oIanC5NqBuvGs9Cmnip_-199" value="" style="shape=partialRectangle;connectable=0;fillColor=none;top=0;left=0;bottom=0;right=0;editable=1;overflow=hidden;whiteSpace=wrap;html=1;" vertex="1" parent="oIanC5NqBuvGs9Cmnip_-198">
          <mxGeometry width="30" height="30" as="geometry">
            <mxRectangle width="30" height="30" as="alternateBounds" />
          </mxGeometry>
        </mxCell>
        <mxCell id="oIanC5NqBuvGs9Cmnip_-200" value="jobGrowName" style="shape=partialRectangle;connectable=0;fillColor=none;top=0;left=0;bottom=0;right=0;align=left;spacingLeft=6;overflow=hidden;whiteSpace=wrap;html=1;" vertex="1" parent="oIanC5NqBuvGs9Cmnip_-198">
          <mxGeometry x="30" width="150" height="30" as="geometry">
            <mxRectangle width="150" height="30" as="alternateBounds" />
          </mxGeometry>
        </mxCell>
        <mxCell id="oIanC5NqBuvGs9Cmnip_-201" style="shape=tableRow;horizontal=0;startSize=0;swimlaneHead=0;swimlaneBody=0;fillColor=none;collapsible=0;dropTarget=0;points=[[0,0.5],[1,0.5]];portConstraint=eastwest;top=0;left=0;right=0;bottom=0;" vertex="1" parent="oIanC5NqBuvGs9Cmnip_-194">
          <mxGeometry y="150" width="180" height="30" as="geometry" />
        </mxCell>
        <mxCell id="oIanC5NqBuvGs9Cmnip_-202" style="shape=partialRectangle;connectable=0;fillColor=none;top=0;left=0;bottom=0;right=0;editable=1;overflow=hidden;whiteSpace=wrap;html=1;" vertex="1" parent="oIanC5NqBuvGs9Cmnip_-201">
          <mxGeometry width="30" height="30" as="geometry">
            <mxRectangle width="30" height="30" as="alternateBounds" />
          </mxGeometry>
        </mxCell>
        <mxCell id="oIanC5NqBuvGs9Cmnip_-203" style="shape=partialRectangle;connectable=0;fillColor=none;top=0;left=0;bottom=0;right=0;align=left;spacingLeft=6;overflow=hidden;whiteSpace=wrap;html=1;" vertex="1" parent="oIanC5NqBuvGs9Cmnip_-201">
          <mxGeometry x="30" width="150" height="30" as="geometry">
            <mxRectangle width="150" height="30" as="alternateBounds" />
          </mxGeometry>
        </mxCell>
      </root>
    </mxGraphModel>
  </diagram>
</mxfile>
